<svg width="1012" height="857" viewBox="0 0 1012 857" fill="none" xmlns="http://www.w3.org/2000/svg">
<g filter="url(#filter0_dd_174_32)">
<path d="M360.611 691.131C362.476 697.353 365.641 703.214 369.383 708.563C403.736 754.826 468.133 761.007 521.692 753.807C525.38 753.322 528.849 752.868 532.105 752.444C539.554 751.472 546.802 750.541 553.951 749.591C555.885 749.334 557.671 749.093 559.315 748.866C561.268 748.597 563.189 748.323 564.805 748.08C565.622 747.957 566.794 747.776 567.656 747.634C568.108 747.56 568.538 747.488 568.947 747.416C569.155 747.38 569.339 747.347 569.555 747.308C569.831 747.259 570.095 747.21 570.35 747.161C570.859 747.064 571.327 746.969 571.756 746.876C572.22 746.772 572.448 746.724 573.131 746.543C573.691 746.39 574.156 746.239 574.564 746.06C574.593 746.047 574.604 746.042 574.65 746.021C574.706 745.995 574.762 745.968 574.816 745.941C574.925 745.885 575.032 745.825 575.138 745.757C575.349 745.619 575.567 745.453 575.774 745.171C575.973 744.889 576.173 744.482 576.097 743.895C576.013 743.351 575.729 743.011 575.498 742.791C560.088 737.595 546.511 735.776 532.587 730.681C505.096 721.274 478.636 705.907 461.61 681.763C457.875 676.49 454.615 670.861 451.859 664.852C454.432 670.941 457.534 676.682 461.14 682.086C477.58 706.848 504.139 723.066 531.793 732.937C545.357 738.041 560.963 741.063 573.542 744.86C562.672 744.446 545.644 747.982 531.718 749.469C528.459 749.894 524.989 750.35 521.3 750.842C468.143 757.97 405.149 753.037 369.845 708.229C365.985 703.023 362.667 697.291 360.611 691.131Z" fill="#00FFCD"/>
<path d="M621.949 674.988C623.814 681.21 626.979 687.071 630.721 692.42C665.074 738.683 729.471 744.864 783.03 737.664C786.718 737.179 790.186 736.725 793.443 736.301C800.892 735.329 808.14 734.398 815.289 733.448C817.222 733.191 819.008 732.95 820.653 732.723C822.606 732.454 824.527 732.18 826.143 731.937C826.96 731.814 828.132 731.633 828.994 731.491C829.446 731.417 829.876 731.345 830.285 731.273C830.493 731.237 830.677 731.204 830.893 731.165C831.168 731.116 831.433 731.067 831.688 731.018C832.197 730.921 832.665 730.826 833.094 730.733C833.558 730.629 833.786 730.581 834.469 730.4C835.029 730.247 835.493 730.096 835.902 729.917C835.931 729.904 835.942 729.899 835.988 729.878C836.044 729.852 836.099 729.825 836.154 729.798C836.263 729.742 836.37 729.682 836.476 729.614C836.687 729.476 836.905 729.31 837.112 729.028C837.311 728.746 837.511 728.339 837.435 727.752C837.351 727.208 837.066 726.868 836.836 726.648C821.426 721.452 807.848 719.633 793.925 714.538C766.433 705.131 739.974 689.764 722.947 665.62C719.213 660.347 715.953 654.718 713.197 648.709C715.77 654.798 718.872 660.539 722.478 665.943C738.917 690.705 765.477 706.923 793.131 716.794C806.695 721.898 822.301 724.92 834.88 728.717C824.01 728.303 806.982 731.839 793.056 733.326C789.797 733.751 786.327 734.207 782.637 734.699C729.481 741.827 666.487 736.894 631.183 692.086C627.323 686.88 624.005 681.148 621.949 674.988Z" fill="#00FFCD"/>
<path d="M391.027 726.796C386.149 726.909 380.934 726.755 376.054 726.416C331.241 722.926 286.773 706.941 253.22 677.171C219.284 647.543 201.137 603.17 198.056 558.252C197.668 553.304 197.426 548.369 197.325 543.216C197.226 548.369 197.278 553.315 197.487 558.286C198.904 603.344 216.58 649.206 251.222 679.409C285.426 709.766 330.988 725.119 376.025 726.985C380.929 727.145 386.157 727.109 391.027 726.796Z" fill="#00FFCD"/>


<path d="M209.797 618.411C210.02 618.337 210.244 618.263 210.467 618.189C195.361 570.685 192.231 515.679 217.641 471.314L217.664 471.264C218.446 469.257 219.494 467.034 220.521 465.079C262.271 398.919 327.781 350.082 363.336 279.438L363.28 279.526C376.627 257.481 365.63 230.745 354.516 210.048C338.593 177.45 294.283 180.927 267.581 197.528L267.409 197.631V197.831C267.409 209.97 267.409 222.108 267.409 234.247L267.527 233.984C255.654 244.621 243.781 255.257 231.908 265.894L232.249 265.82C212.655 261.4 192.407 267.483 175.145 276.734C165.395 281.927 155.326 287.017 144.366 288.329C133.172 289.925 123.187 283.585 113.441 278.607C112.998 278.381 112.572 278.146 112.158 277.898C101.944 271.909 100.114 258.371 102.028 247.453L101.95 247.617C115.829 231.104 129.714 214.594 143.603 198.089L143.697 197.977L143.697 197.831C143.701 193.201 143.706 188.571 143.711 183.94L143.576 184.246C176.167 155.446 211.429 128.83 250.804 110.156C330.741 80.64 422.473 134.648 454.043 210.673C484.176 304.68 412.698 393.872 353.127 462.219L352.835 462.523L352.746 462.936C350.304 473.121 356.365 484.878 366.392 488.183C371.254 490.074 376.355 490.644 381.422 490.655L382.104 490.655L382.552 490.141C402.994 471.09 425.885 453.603 447.96 435.864L447.809 435.969C482.022 416.998 523.389 408.224 562.031 416.481C593.665 423.756 625.349 436.305 649.131 458.404L649.101 458.371C672.765 485.481 696.434 512.587 720.104 539.693L720.147 539.739C741.181 559.439 771.216 576.294 800.683 566.813C824.455 560.622 836.165 533.541 831.448 510.853L831.427 510.755C827.389 491.706 814.449 476.089 800.782 462.907C780.074 442.368 757.337 422.879 743.914 396.648C709.637 332.852 753.149 262.295 793.35 211.346C794.019 210.51 794.695 209.671 795.377 208.829L795.098 208.614C758.183 255.939 739.473 328.002 778.663 379.276C799.082 408.032 830.452 425.65 857.104 447.664C907.91 491.851 928.042 571.463 892.663 630.62C888.9 637.028 884.523 643.128 879.399 648.433C860.518 668.009 838.626 686.377 811.93 693.301C794.663 697.696 776.526 700.583 758.919 697.368C758.854 697.715 758.789 698.062 758.723 698.409C776.602 701.628 794.836 698.661 812.168 694.217C839.129 687.161 861.085 668.627 879.971 648.985C885.143 643.612 889.539 637.459 893.317 631.003C928.802 571.445 908.4 491.527 857.442 447.305C830.657 425.229 799.372 407.693 779 379.04C739.907 327.957 758.508 256.111 795.383 208.823L795.103 208.607C794.42 209.45 793.744 210.289 793.075 211.125C752.884 262.117 709.05 332.609 743.312 396.958C756.741 423.381 779.497 443.003 800.103 463.597C813.728 476.874 826.312 492.094 830.291 511.105L830.27 511.007C834.737 533.57 823.421 559.375 800.203 565.42C771.7 574.546 742.022 557.909 721.455 538.434L721.498 538.48C697.943 511.275 674.387 484.071 650.826 456.87L650.796 456.837C626.359 433.977 594.609 421.421 562.604 413.915C523.097 405.399 481.359 414.133 446.304 433.472L446.153 433.577C423.932 451.392 401.419 468.455 380.292 488.171L381.422 487.657C376.603 487.649 371.838 487.087 367.488 485.391C358.615 482.392 353.633 472.532 355.67 463.568L355.289 464.285C415.087 395.355 487.09 306.13 456.079 209.766C423.75 132.999 331.135 78.9176 250.302 109.059C210.788 127.979 175.626 154.706 143.017 183.635L142.882 183.759L142.883 183.94C142.887 188.571 142.892 193.201 142.896 197.831L142.99 197.573C129.131 214.105 115.268 230.632 101.4 247.155L101.339 247.227L101.322 247.32C99.3926 258.404 101.199 272.255 111.795 278.503C112.224 278.76 112.663 279.003 113.121 279.236C122.796 284.171 132.991 290.659 144.439 289.031C155.603 287.688 165.696 282.561 175.482 277.354C192.617 268.149 212.837 262.154 232.038 266.494L232.23 266.554L232.379 266.42C244.252 255.783 256.125 245.146 267.998 234.509L268.115 234.404V234.247C268.115 222.108 268.115 209.97 268.115 197.831L267.943 198.134C294.521 181.65 338.222 178.257 353.9 210.392C365.014 230.961 375.723 257.722 362.744 279.067L362.689 279.155C327.278 349.545 261.818 398.347 219.895 464.752C218.86 466.723 217.8 468.97 217.007 471.007L217.031 470.958C191.477 515.6 194.652 570.762 209.797 618.411Z" fill="#00FFCD"/>


<path d="M161.711 213.903C162.039 213.55 162.365 213.196 162.69 212.841C165.613 209.643 168.43 206.36 171.14 202.992C173.85 199.623 176.453 196.17 178.949 192.632C179.226 192.238 179.502 191.844 179.777 191.449C179.449 191.802 179.123 192.156 178.798 192.512C175.875 195.71 173.058 198.993 170.348 202.361C167.638 205.729 165.035 209.182 162.539 212.721C162.262 213.114 161.986 213.508 161.711 213.903Z" fill="#00FFCD"/>
</g>
<g filter="url(#filter1_d_174_32)">
<path d="M123.307 269.488L163.807 228.328L177.006 227.892" stroke="#00FFCD"/>
<path d="M154.903 257.898L170.511 242.13H218.937L248.952 213.974L244.15 182.814L303.381 133.634" stroke="#00FFCD"/>
<path d="M155.028 258.3L170.637 242.533H219.062L249.078 214.376L267.888 221.885" stroke="#00FFCD"/>
<path d="M225.866 180.964L260.684 149.804L285.897 148.678" stroke="#00FFCD"/>
<path d="M228.667 159.941L255.433 136.616L313.512 133.661" stroke="#00FFCD"/>
<path d="M258.683 125.027L324.718 122.774L341.527 107.007" stroke="#00FFCD"/>
<path d="M371.142 120.897L341.927 148.678" stroke="#00FFCD"/>
<path d="M385.55 129.156L351.132 161.067L361.137 193.728" stroke="#00FFCD"/>
<path d="M399.157 141.17L368.341 166.698L382.748 211.749" stroke="#00FFCD"/>
<path d="M371.142 120.897L341.927 148.678" stroke="#00FFCD"/>
<path d="M385.55 129.156L351.132 161.067L361.137 193.728" stroke="#00FFCD"/>
<path d="M399.157 141.17L368.341 166.698L382.748 211.749" stroke="#00FFCD"/>
<path d="M199.452 542.526L239.853 551.831" stroke="#00FFCD"/>
<path d="M199.633 526.688L246.48 538.068L271.257 513.276" stroke="#00FFCD"/>
<path d="M203.661 509.572L242.819 521.32L276.684 486.634" stroke="#00FFCD"/>
<path d="M397.933 412.994L359.197 385.783L326.242 399.897" stroke="#00FFCD"/>
<path d="M387.28 427.395L355.806 402.582L310.441 422.613" stroke="#00FFCD"/>
<path d="M460.57 261.555L421.169 249.035" stroke="#00FFCD"/>
<path d="M460.505 278.371L414.505 264.273L388.129 287.569" stroke="#00FFCD"/>
<path d="M454.386 295.467L416.812 283.946L384.104 319.595" stroke="#00FFCD"/>
<path d="M229.94 651.552L254.754 639.985" stroke="#00FFCD"/>
<path d="M222.438 643.22L251.494 630.116L252.091 607.118" stroke="#00FFCD"/>
<path d="M216.261 632.657L241.621 622.869L242.052 591.02" stroke="#00FFCD"/>
<path d="M313.931 714.577L330.141 693.496" stroke="#00FFCD"/>
<path d="M303.154 710.484L322.354 686.188L311.457 665.579" stroke="#00FFCD"/>
<path d="M292.442 703.838L310.018 684.092L294.578 655.724" stroke="#00FFCD"/>
<path d="M204.254 596.177L338.325 580.034L383.549 494.814" stroke="#00FFCD"/>
<path d="M230.268 451.641L307.509 509.831L383.149 495.19" stroke="#00FFCD"/>
<path d="M274.291 397.205L357.535 453.518" stroke="#00FFCD"/>
<path d="M350.331 303.726L434.776 344.647" stroke="#00FFCD"/>
<path d="M360.337 223.762L438.378 183.968" stroke="#00FFCD"/>
<path d="M341.527 442.256L353.933 437.375L372.743 443.006" stroke="#00FFCD"/>
<path d="M371.543 395.328L361.537 406.966" stroke="#00FFCD"/>
<path d="M249.492 475.587L249.453 475.457" stroke="#00FFCD" stroke-linecap="round"/>
<path d="M242.152 473.331C242.158 473.221 242.164 473.111 242.183 472.978C242.202 472.845 242.233 472.692 242.234 472.689C242.234 472.687 242.203 472.84 241.953 473.054" stroke="#00FFCD" stroke-linecap="round"/>
<path d="M243.266 480.965L243.183 481.104" stroke="#00FFCD" stroke-linecap="round"/>
<path d="M376.111 403.587L375.834 403.847" stroke="#00FFCD" stroke-linecap="round"/>
<path d="M371.82 408.002L371.543 408.262" stroke="#00FFCD" stroke-linecap="round"/>
<path d="M373.166 228.156L373.275 228.464" stroke="#00FFCD" stroke-linecap="round"/>
<path d="M375.025 233.389L375.135 233.697" stroke="#00FFCD" stroke-linecap="round"/>
<path d="M331.618 573.57L331.765 573.277" stroke="#00FFCD" stroke-linecap="round"/>
<path d="M321.916 574.271L322.02 574.235" stroke="#00FFCD" stroke-linecap="round"/>
<path d="M423.835 181.34L423.57 181.464" stroke="#00FFCD" stroke-linecap="round"/>
<path d="M191.047 191.851L198.251 141.17" stroke="#00FFCD"/>
<path d="M206.656 135.357L199.223 184.446L191.448 190.919" stroke="#00FFCD"/>


<path d="M201.853 167.074L232.625 140.794V120.522" stroke="#00FFCD"/>
<path d="M233.07 132.911L247.477 123.525L253.881 109.635" stroke="#00FFCD"/>
<path d="M198.251 184.718L226.266 180.589L230.668 208.37L211.458 227.892H176.24" stroke="#00FFCD"/>
<path d="M164.233 227.892L180.242 210.998L192.248 206.868L196.25 193.353L190.647 190.725" stroke="#00FFCD"/>
<path d="M139.82 203.865L143.823 212.499L122.211 238.403L119.01 228.267" stroke="#00FFCD"/>
</g>
<defs>
<filter id="filter0_dd_174_32" x="0.644531" y="0.576538" width="1010.48" height="855.755" filterUnits="userSpaceOnUse" color-interpolation-filters="sRGB">
<feFlood flood-opacity="0" result="BackgroundImageFix"/>
<feColorMatrix in="SourceAlpha" type="matrix" values="0 0 0 0 0 0 0 0 0 0 0 0 0 0 0 0 0 0 127 0" result="hardAlpha"/>
<feOffset/>
<feGaussianBlur stdDeviation="12.5"/>
<feComposite in2="hardAlpha" operator="out"/>
<feColorMatrix type="matrix" values="0 0 0 0 0 0 0 0 0 1 0 0 0 0 0.8 0 0 0 1 0"/>
<feBlend mode="normal" in2="BackgroundImageFix" result="effect1_dropShadow_174_32"/>
<feColorMatrix in="SourceAlpha" type="matrix" values="0 0 0 0 0 0 0 0 0 0 0 0 0 0 0 0 0 0 127 0" result="hardAlpha"/>
<feOffset/>
<feGaussianBlur stdDeviation="50"/>
<feComposite in2="hardAlpha" operator="out"/>
<feColorMatrix type="matrix" values="0 0 0 0 0 0 0 0 0 1 0 0 0 0 0.883333 0 0 0 1 0"/>
<feBlend mode="normal" in2="effect1_dropShadow_174_32" result="effect2_dropShadow_174_32"/>
<feBlend mode="normal" in="SourceGraphic" in2="effect2_dropShadow_174_32" result="shape"/>
</filter>
<filter id="filter1_d_174_32" x="108.533" y="96.642" width="362.184" height="628.246" filterUnits="userSpaceOnUse" color-interpolation-filters="sRGB">
<feFlood flood-opacity="0" result="BackgroundImageFix"/>
<feColorMatrix in="SourceAlpha" type="matrix" values="0 0 0 0 0 0 0 0 0 0 0 0 0 0 0 0 0 0 127 0" result="hardAlpha"/>
<feOffset/>
<feGaussianBlur stdDeviation="5"/>
<feComposite in2="hardAlpha" operator="out"/>
<feColorMatrix type="matrix" values="0 0 0 0 0 0 0 0 0 1 0 0 0 0 0.766667 0 0 0 1 0"/>
<feBlend mode="normal" in2="BackgroundImageFix" result="effect1_dropShadow_174_32"/>
<feBlend mode="normal" in="SourceGraphic" in2="effect1_dropShadow_174_32" result="shape"/>
</filter>
</defs>
</svg>